<svg width="145" height="42" viewBox="0 0 145 42" fill="none" xmlns="http://www.w3.org/2000/svg">
<g clip-path="url(#clip0_402_531)">
<path d="M30.6409 11.6718V7.78996C30.6409 7.02777 30.3395 6.31 29.7928 5.76993L24.7846 0.83578C24.238 0.295716 23.5097 0 22.7349 0H0V27.1281C0 27.8862 0.305705 28.6136 0.849493 29.1495L5.9704 34.1962C6.18876 34.4113 6.0338 34.7779 5.72668 34.7779H0V41.7904H22.7363C23.5055 41.7904 24.2423 41.4891 24.7846 40.9546L29.7928 36.019C30.3409 35.479 30.6409 34.7626 30.6409 33.999V20.6835C30.6409 19.931 30.0225 19.3215 29.2589 19.3215H24.9157C24.6071 19.3215 24.4536 18.955 24.6719 18.7398L29.7928 13.6932C30.3366 13.1573 30.6423 12.4312 30.6423 11.6731L30.6409 11.6718ZM7.11574 7.0125H22.5334C23.0814 7.0125 23.5252 7.44982 23.5252 7.98989V10.0418L20.1286 13.3891C19.7905 13.7223 19.6046 14.1652 19.6046 14.6359V18.1164C19.6046 18.8592 20.216 19.4617 20.9697 19.4617H23.0871C23.3294 19.4617 23.5252 19.6547 23.5252 19.8935V34.7751H7.55387C7.31156 34.7751 7.11574 34.5821 7.11574 34.3433V7.0125Z" fill="white"/>
<path d="M55.3185 18.1693V17.657C55.3185 16.0521 54.4591 15.0261 53.0799 14.4916V13.9571C54.2337 13.356 54.8888 12.4188 54.8888 11.1485V10.6584C54.8888 8.22884 53.0109 7.04736 49.7538 7.04736H41.7689V21.9817H50.0018C53.5533 21.9817 55.3171 20.5781 55.3171 18.1707L55.3185 18.1693ZM44.7104 9.29786H49.4157C51.1795 9.29786 51.9036 9.94483 51.9036 11.1027V11.5261C51.9036 12.6632 51.1344 13.3768 49.4833 13.3768H44.7104V9.29786ZM44.7104 19.7298V15.4496H49.551C51.4739 15.4496 52.3558 16.1188 52.3558 17.3891V17.7903C52.3558 19.0829 51.519 19.7298 49.6186 19.7298H44.7104Z" fill="white"/>
<path d="M60.2182 5.48682H57.3457V21.9817H60.2182V5.48682Z" fill="white"/>
<path d="M68.337 22.2038H68.7216C72.2731 22.2038 74.8737 20.4656 74.8737 16.9211V15.7619C74.8737 12.2397 72.2731 10.4792 68.7216 10.4792H68.337C64.7629 10.4792 62.1849 12.2397 62.1849 15.7619V16.9211C62.1849 20.4433 64.7629 22.2038 68.337 22.2038ZM65.0574 15.7397C65.0574 13.8446 66.1886 12.7311 68.337 12.7311H68.7216C70.87 12.7311 71.9787 13.846 71.9787 15.7397V16.9433C71.9787 18.8162 70.87 19.9297 68.7216 19.9297H68.337C66.1661 19.9297 65.0574 18.8148 65.0574 16.9433V15.7397Z" fill="white"/>
<path d="M82.6587 22.2038H83.0433C86.5272 22.2038 89.0376 20.5545 89.0376 17.6792V17.5682H86.1877V17.6792C86.1877 19.0162 84.9888 19.9311 83.0433 19.9311H82.6587C80.6455 19.9311 79.5143 18.8829 79.5143 16.9892V15.7411C79.5143 13.8238 80.6455 12.7326 82.6587 12.7326H83.0433C85.0113 12.7326 86.12 13.7128 86.12 15.1178V15.2288H88.97V15.1178C88.97 12.1092 86.5272 10.4807 83.0447 10.4807H82.6601C79.0409 10.4807 76.6432 12.2633 76.6432 15.7856V16.9448C76.6432 20.467 79.0409 22.2052 82.6601 22.2052L82.6587 22.2038Z" fill="white"/>
<path d="M93.9599 17.3224H94.3896C94.6065 17.3224 94.815 17.4085 94.9672 17.5612L99.3654 21.9803H102.985L97.5565 16.3631V15.6717L102.645 10.6792H99.3203L94.9658 14.9289C94.8136 15.0761 94.6093 15.1594 94.3966 15.1594H93.9599V5.48682H91.0874V21.9817H93.9599V17.3224Z" fill="white"/>
<path d="M108.62 15.3164C105.227 15.3164 103.711 16.5645 103.711 18.7719C103.711 21.1349 105.475 22.2053 107.873 22.2053C109.642 22.2053 110.91 21.7694 111.864 20.7489C111.98 20.6254 112.142 20.556 112.311 20.556H112.554V21.9832H115.449V14.5611C115.449 11.9982 113.641 10.4822 109.931 10.4822H109.524C105.927 10.4822 104.028 11.976 104.028 14.5389H106.878C106.878 13.1353 107.987 12.5328 109.524 12.5328H109.909C111.56 12.5328 112.554 13.1575 112.554 14.5611V15.3191H108.618L108.62 15.3164ZM112.556 17.478C112.556 19.4175 110.678 20.0631 108.959 20.0631C107.353 20.0631 106.561 19.5286 106.561 18.547C106.561 17.5655 107.263 17.031 108.937 17.031H112.556V17.4766V17.478Z" fill="white"/>
<path d="M127.177 12.1508H127.025C126.889 12.1508 126.756 12.0939 126.666 11.9926C125.777 10.9832 124.406 10.4793 122.836 10.4793H122.451C119.511 10.4793 117.385 12.1731 117.385 15.7619V16.9212C117.385 20.51 119.511 22.2038 122.451 22.2038H122.836C124.447 22.2038 125.798 21.6804 126.666 20.6544C126.756 20.5475 126.891 20.4878 127.032 20.4878H127.179V21.9817H130.051V5.48682H127.179V12.1522L127.177 12.1508ZM127.177 16.9434C127.177 18.9051 125.888 19.9297 123.898 19.9297H123.513C121.523 19.9297 120.256 18.8815 120.256 16.9434V15.7397C120.256 13.8002 121.523 12.7312 123.513 12.7312H123.898C125.888 12.7312 127.177 13.7794 127.177 15.7397V16.9434Z" fill="white"/>
<path d="M144.529 15.7619C144.529 12.2174 141.906 10.4792 138.467 10.4792H138.083C134.623 10.4792 132.043 12.2174 132.043 15.7619V16.9433C132.043 20.4878 134.644 22.2038 138.083 22.2038H138.467C142.087 22.2038 144.055 20.6433 144.393 18.2803H141.723C141.384 19.4618 140.321 20.1088 138.466 20.1088H138.081C136.023 20.1088 134.802 19.1064 134.802 17.0322H144.528V15.7619H144.529ZM134.803 15.1149C134.938 13.4433 136.115 12.552 138.083 12.552H138.467C140.345 12.552 141.634 13.4656 141.77 15.1149H134.803Z" fill="white"/>
<path d="M44.778 26.8408V39.347H53.2828V41.7766H41.7914V26.8408H44.778Z" fill="white"/>
<path d="M60.9198 30.2741C64.6291 30.2741 66.4394 31.7902 66.4394 34.353V41.7765H63.5443V40.3493H63.0245C62.0524 41.5085 60.7394 41.9986 58.8629 41.9986C56.4652 41.9986 54.7014 40.9282 54.7014 38.5652C54.7014 36.3578 56.2173 35.1097 59.6096 35.1097H63.5457V34.3516C63.5457 32.9466 62.5511 32.3233 60.8986 32.3233H60.514C58.9756 32.3233 57.8669 32.9258 57.8669 34.3294H55.017C55.017 31.7666 56.9174 30.2727 60.514 30.2727H60.9212L60.9198 30.2741ZM57.55 38.3445C57.55 39.3261 58.3417 39.8606 59.9477 39.8606C61.6664 39.8606 63.5443 39.2136 63.5443 37.2741V36.8284H59.9252C58.2515 36.8284 57.55 37.3407 57.55 38.3445Z" fill="white"/>
<path d="M71.6434 25.2803V31.9457H72.1181C73 30.8309 74.3356 30.2741 75.9866 30.2741H76.3712C79.3114 30.2741 81.4386 31.9679 81.4386 35.5568V36.716C81.4386 40.3049 79.3128 41.9986 76.3712 41.9986H75.9866C74.2905 41.9986 72.9775 41.4197 72.1181 40.2827H71.6434V41.7765H68.7709V25.2803H71.6434ZM71.6434 35.5345V36.7382C71.6434 38.6999 72.9324 39.7259 74.923 39.7259H75.2851C77.2982 39.7259 78.5647 38.6777 78.5647 36.7382V35.5345C78.5647 33.595 77.2982 32.5246 75.2851 32.5246H74.923C72.9099 32.5246 71.6434 33.5728 71.6434 35.5345Z" fill="white"/>
<path d="M88.87 30.2742C92.1271 30.2742 94.2769 31.5445 94.2769 34.0421V34.2656H91.4494V34.0199C91.4494 32.6371 90.2957 32.2137 88.8714 32.2137H88.4868C87.016 32.2137 86.0214 32.5927 86.0214 33.5965C86.0214 34.6002 86.9709 34.8668 89.4602 35.1792C93.0794 35.6693 94.4375 36.6508 94.4375 38.5001V38.6556C94.4375 40.8186 92.4018 41.9987 88.9404 41.9987H88.5558C85.117 41.9987 83.0137 40.8172 83.0137 38.2085V38.0294H85.8185V38.2529C85.8185 39.5455 86.8596 40.037 88.5558 40.037H88.9404C90.7958 40.037 91.61 39.5913 91.61 38.7C91.61 37.7184 90.6831 37.3852 88.036 37.0506C84.9141 36.6716 83.1729 35.8914 83.1729 33.7742V33.6187C83.1729 31.5237 85.2987 30.2742 88.4882 30.2742H88.8728H88.87Z" fill="white"/>
</g>
<defs>
<clipPath id="clip0_402_531">
<rect width="144.529" height="42" fill="white"/>
</clipPath>
</defs>
</svg>
